<svg height='300px' width='300px'  fill="#000000" xmlns="http://www.w3.org/2000/svg" xmlns:xlink="http://www.w3.org/1999/xlink" version="1.1" x="0px" y="0px" viewBox="0 0 100 100" enable-background="new 0 0 100 100" xml:space="preserve"><path d="M54.753,41.163c-5.262,1.915-10.211,3.858-14.807,7.139c-3.1,2.214-9.429,7.31-5.229,11.365  c1.503,1.451,3.744,2.082,5.71,2.592c2.487,0.646,5.033,1.047,7.545,1.572c2.08,0.436,4.318,0.877,6.142,2.023  c1.164,0.732,1.097,1.541,0.571,2.344c-0.148,0.229-0.723,0.68-1.168,0.945c-0.715,0.426-1.493,0.705-2.283,0.955  c-2.012,0.639-4.127,0.984-6.215,1.262c-4.78,0.637-9.605,0.863-14.384,1.52c-2.605,0.357-7.297,0.746-8.563,3.572  c-2.155,4.811,4.804,7.506,8.198,8.287c4.065,0.934,8.349,1.039,12.492,0.719c4.121-0.316,7.984-1.697,12.058-2.174  c2.816-0.33,6.337-0.49,8.803,1.16c2.789,1.865-1.063,6.396-2.328,7.881c-1.273,1.496,0.885,3.674,2.168,2.168  c1.979-2.324,4.041-5.037,4.15-8.215c0.076-2.199-1.383-4.004-3.262-4.959c-5-2.543-11.16-0.922-16.271,0.27  c-6.221,1.451-13.528,1.572-19.612-0.551c-1.395-0.486-3.716-1.506-3.66-3.293c-0.008,0.25,0.131-0.125,0.18-0.162  c0.584-0.441,1.025-0.576,1.641-0.777c3.979-1.297,8.419-1.371,12.552-1.754c4.495-0.416,9.203-0.73,13.501-2.207  c2.905-0.998,6.543-3.5,5.161-7.105c-1.555-4.057-7.889-4.65-11.506-5.354c-2.721-0.529-5.662-0.922-8.194-2.107  c-0.723-0.338-1.547-0.826-1.74-1.453c-0.274-0.895,1.018-2.242,1.588-2.863c4.652-5.065,11.288-7.555,17.574-9.842  C57.411,43.448,56.615,40.486,54.753,41.163L54.753,41.163z"></path><path d="M83.676,9.024C76.836,6.429,67.782,5,58.183,5c-4.972,0-9.794,0.381-14.335,1.131c-4.094,0.677-7.78,1.631-10.982,2.832  l-5.71-2.079c-0.918-0.384-1.944-0.391-2.975-0.017L9.51,12.205C6.98,13.124,5,16.237,5,19.293V31.55  c0,2.124,0.947,3.807,2.533,4.501l6.943,2.528l0-0.002c0.449,0.184,0.928,0.28,1.428,0.28c0.496,0,1.002-0.093,1.507-0.275  l14.674-5.338c2.529-0.919,4.51-4.031,4.51-7.085v-3.926c2.358-0.719,4.948-1.319,7.753-1.783c4.377-0.724,9.032-1.09,13.834-1.09  c6.726,0,13.241,0.731,18.845,2.116c4.33,1.069,7.918,2.472,10.523,4.104c-1.252,0.784-2.738,1.517-4.439,2.189l-1.561,0.567  c-0.354-1.359-1.172-2.402-2.336-2.912c-0.029-0.013-0.061-0.022-0.09-0.034V25.39l-0.158-0.058  c-0.039-0.014-0.078-0.03-0.117-0.042l-6.537-2.377c-0.917-0.386-1.944-0.392-2.975-0.017l-14.674,5.338  c-2.527,0.92-4.508,4.032-4.508,7.086v12.259c0,2.124,0.946,3.807,2.532,4.5l6.943,2.529l0.001-0.002  c0.45,0.184,0.931,0.279,1.43,0.279c0.497,0,1.003-0.092,1.505-0.275l14.673-5.336c2.349-0.855,4.222-3.604,4.478-6.438l2.463-0.896  l0.039-0.015c3.254-1.285,5.832-2.795,7.662-4.488C93.951,35.517,95,33.428,95,31.228V19.932C95,15.674,90.979,11.8,83.676,9.024z   M57.008,37.812V50.07c0,0.11,0.004,0.218,0.01,0.325l-3.131-1.139c-0.405-0.203-0.664-0.855-0.664-1.679V35.319  c0-1.758,1.164-3.724,2.49-4.206l14.674-5.338c0.205-0.075,0.502-0.141,0.746-0.034l2.042,0.744l-11.657,4.24  C58.988,31.645,57.008,34.757,57.008,37.812z M72.783,34.78c-4.234,1.542-6.568,2.392-7.478,3.282  c-0.655,0.642-0.687,1.535-0.687,4.262c0,0.847-0.687,1.533-1.533,1.533c-0.848,0-1.533-0.687-1.533-1.533  c0-3.041,0-4.877,1.606-6.45c1.384-1.355,3.638-2.176,8.574-3.974c0.796-0.29,1.675,0.12,1.966,0.915  C73.988,33.611,73.579,34.49,72.783,34.78z M11.852,21.785v12.259c0,0.109,0.004,0.217,0.009,0.323l-3.13-1.138  c-0.405-0.204-0.665-0.856-0.665-1.68V19.293c0-1.759,1.165-3.726,2.492-4.208l14.671-5.337c0.299-0.108,0.552-0.12,0.751-0.033  l2.04,0.744L16.362,14.7C13.833,15.619,11.852,18.731,11.852,21.785z M33.529,26.16c0,1.757-1.164,3.723-2.492,4.205l-14.674,5.337  c-0.296,0.107-0.547,0.123-0.748,0.034c-0.423-0.185-0.697-0.849-0.697-1.691V21.785c0-1.758,1.165-3.723,2.492-4.206l14.681-5.34  c0.162-0.06,0.312-0.09,0.446-0.09c0.063,0,0.124,0.009,0.193,0.027l0.119,0.042c0.413,0.191,0.68,0.847,0.68,1.681V26.16z   M90.104,23.597c-2.969-2.076-7.199-3.826-12.34-5.095c-5.841-1.443-12.611-2.206-19.581-2.206c-4.97,0-9.793,0.381-14.335,1.131  c-2.588,0.428-5.009,0.968-7.252,1.609V13.9c0-1.051-0.232-1.993-0.658-2.76c2.53-0.811,5.344-1.478,8.411-1.984  c4.376-0.724,9.031-1.09,13.834-1.09c9.237,0,17.904,1.358,24.405,3.824c5.939,2.258,9.346,5.189,9.346,8.043  C91.934,21.146,91.318,22.378,90.104,23.597z"></path><path d="M31.615,25.244c0,1.561-1.013,3.193-2.262,3.647l-10.259,3.732c-0.449,0.163-0.867,0.153-1.22-0.002  c-0.625-0.274-1.042-1-1.042-1.999v-7.92c0-1.561,1.012-3.193,2.262-3.647l10.259-3.732c0.448-0.165,0.867-0.154,1.219,0.002  c0.628,0.272,1.043,1,1.043,2V25.244z"></path></svg>